<svg data-name="Layer 1" xmlns="http://www.w3.org/2000/svg" viewBox="0 0 145.989 147.5"><circle cx="72.995" cy="16.824" r="15.074" fill="none" stroke="#fff" stroke-linecap="round" stroke-linejoin="round" stroke-width="3.5"/><circle cx="25.347" cy="39.31" r="12.706" fill="none" stroke="#fff" stroke-linecap="round" stroke-linejoin="round" stroke-width="3.5"/><path d="M36.139 61.805h-23.5A10.923 10.923 0 001.75 72.7v30.6h10.891v42.454m36.303-42.46H38.053v42.454m-12.706-33.379v33.379" fill="none" stroke="#fff" stroke-linecap="round" stroke-linejoin="round" stroke-width="3.5"/><circle cx="120.642" cy="39.31" r="12.706" fill="none" stroke="#fff" stroke-linecap="round" stroke-linejoin="round" stroke-width="3.5"/><path d="M109.851 61.805h23.5A10.923 10.923 0 01144.239 72.7v30.6h-10.891v42.454m-36.303-42.46h10.891v42.454m12.706-33.379v33.379" fill="none" stroke="#fff" stroke-linecap="round" stroke-linejoin="round" stroke-width="3.5"/><path d="M57.05 145.75v-53.8H43.829V54.8A13.26 13.26 0 0157.05 41.579h31.893A13.26 13.26 0 01102.165 54.8v37.146H88.943v53.8m-15.95-42.781v42.785" fill="none" stroke="#fff" stroke-linecap="round" stroke-linejoin="round" stroke-width="3.5"/></svg>