<svg xmlns="http://www.w3.org/2000/svg" width="41.22" height="41.105"><g data-name="flower small"><path d="M17.396 39.258a11.84 11.84 0 003.284-1.973c-.2-.171-.4-.337-.6-.523a11.881 11.881 0 01-2.828-12.795 11.861 11.861 0 01-13.32-3.417 11.875 11.875 0 0013.464 18.708zm19.48-2.77a11.88 11.88 0 00.525-15.942A11.869 11.869 0 0020.676 3.813a11.879 11.879 0 013.406 13.337 11.931 11.931 0 014.279-.792 11.8 11.8 0 018.241 3.334c.283.274.547.56.8.854-.17.2-.336.4-.52.6a11.89 11.89 0 01-12.794 2.824 11.88 11.88 0 01-3.408 13.315 11.866 11.866 0 0016.2-.8zm-28.267-19.3a11.833 11.833 0 018.663-.046 11.868 11.868 0 012.546-12.524c.277-.286.565-.553.863-.8A11.877 11.877 0 003.936 20.551a11.82 11.82 0 014.673-3.364z" data-name="Union 44" fill="none" stroke="#7eddd3" stroke-miterlimit="10" stroke-width="2" opacity=".487"/></g></svg>