<svg data-name="Layer 1" xmlns="http://www.w3.org/2000/svg" viewBox="0 0 53 37"><path d="M.76 30c.88 4.5 2.94 6.16 7.44 6.65s9 .39 13.49.49c7.92.29 15.84 0 23.76-.49a6.51 6.51 0 006.45-5.08 12.32 12.32 0 00.68-3.33 108.41 108.41 0 00.3-14.86 26.07 26.07 0 00-1.18-8.17 6.44 6.44 0 00-4.79-4.3 27.43 27.43 0 00-3-.4C38.21.12 32.44 0 26.58 0S14.75.12 8.88.42C3.8.71 1.64 2.57.67 7.55c-.1.59-.2 1.28-.3 2A103 103 0 00.08 23a34.92 34.92 0 00.68 7zM21 18v-6.24c0-.88.3-1.08 1.08-.69 4.11 2.15 8.21 4.31 12.22 6.36.69.39.69.68 0 1.07-4 2.06-8.11 4.21-12.12 6.26-1.08.59-1.18 0-1.18-.88z" fill="#fff"/></svg>