<svg id="Foreground" xmlns="http://www.w3.org/2000/svg" viewBox="0 0 78.986 78.994"><title>prime_care_logo_icon_color</title><path d="M55,0A24.086,24.086,0,0,0,39.482,5.686q.9.762,1.742,1.625a23.975,23.975,0,0,1,5.135,25.3,23.99,23.99,0,0,1,26.946,6.888A24,24,0,0,0,55,0" fill="#8a1538"/><path d="M5.692,39.487A23.979,23.979,0,0,0,39.474,73.3a23.994,23.994,0,0,1-6.885-26.9A24.026,24.026,0,0,1,6.743,40.689c-.374-.387-.707-.8-1.051-1.2" fill="#00677f"/><path d="M73.305,39.5h0a23.965,23.965,0,0,1-26.911,6.9A24,24,0,0,1,40.68,72.243c-.388.375-.8.71-1.206,1.055A23.994,23.994,0,0,0,73.305,39.5" fill="#d50032"/><path d="M23.977.007A23.973,23.973,0,0,0,5.692,39.487c.506-.594,1.039-1.172,1.612-1.725a23.849,23.849,0,0,1,16.65-6.735,24.119,24.119,0,0,1,8.646,1.6A23.991,23.991,0,0,1,39.482,5.685,23.933,23.933,0,0,0,23.977.007" fill="#7eddd3"/></svg>