<svg id="Layer_1" data-name="Layer 1" xmlns="http://www.w3.org/2000/svg" viewBox="0 0 145.989 147.5"><title>member_icon</title><circle cx="72.995" cy="16.824" r="15.074" style="fill:none;stroke:#fff;stroke-linecap:round;stroke-linejoin:round;stroke-width:3.5px"/><circle cx="25.347" cy="39.31" r="12.706" style="fill:none;stroke:#fff;stroke-linecap:round;stroke-linejoin:round;stroke-width:3.5px"/><path d="M36.139,61.805h-23.5A10.923,10.923,0,0,0,1.75,72.7v30.6H12.641v42.454" style="fill:none;stroke:#fff;stroke-linecap:round;stroke-linejoin:round;stroke-width:3.5px"/><polyline points="48.944 103.294 38.053 103.294 38.053 145.748" style="fill:none;stroke:#fff;stroke-linecap:round;stroke-linejoin:round;stroke-width:3.5px"/><line x1="25.347" y1="112.369" x2="25.347" y2="145.748" style="fill:none;stroke:#fff;stroke-linecap:round;stroke-linejoin:round;stroke-width:3.5px"/><circle cx="120.642" cy="39.31" r="12.706" style="fill:none;stroke:#fff;stroke-linecap:round;stroke-linejoin:round;stroke-width:3.5px"/><path d="M109.851,61.805h23.5A10.923,10.923,0,0,1,144.239,72.7v30.6H133.348v42.454" style="fill:none;stroke:#fff;stroke-linecap:round;stroke-linejoin:round;stroke-width:3.5px"/><polyline points="97.045 103.294 107.936 103.294 107.936 145.748" style="fill:none;stroke:#fff;stroke-linecap:round;stroke-linejoin:round;stroke-width:3.5px"/><line x1="120.642" y1="112.369" x2="120.642" y2="145.748" style="fill:none;stroke:#fff;stroke-linecap:round;stroke-linejoin:round;stroke-width:3.5px"/><path d="M57.05,145.75v-53.8H43.829V54.8A13.26,13.26,0,0,1,57.05,41.579H88.943A13.26,13.26,0,0,1,102.165,54.8V91.946H88.943v53.8" style="fill:none;stroke:#fff;stroke-linecap:round;stroke-linejoin:round;stroke-width:3.5px"/><line x1="72.993" y1="102.965" x2="72.993" y2="145.75" style="fill:none;stroke:#fff;stroke-linecap:round;stroke-linejoin:round;stroke-width:3.5px"/></svg>