<svg id="Layer_1" data-name="Layer 1" xmlns="http://www.w3.org/2000/svg" viewBox="0 0 113.3 113.17"><g id="flower_color_4" data-name="flower color 4"><path id="Path_772" data-name="Path 772" d="M78.62,1a34.2,34.2,0,0,0-22,8.08c.85.72,1.68,1.49,2.48,2.31a34.07,34.07,0,0,1,7.29,35.93,34,34,0,0,1,38.27,9.78A34.09,34.09,0,0,0,78.62,1" transform="translate(0.09 -0.5)" fill="#8a1538" stroke="#525252" stroke-miterlimit="10" opacity="0.1" style="isolation:isolate"/><path id="Path_789" data-name="Path 789" d="M78.62,1a34.2,34.2,0,0,0-22,8.08c.85.72,1.68,1.49,2.48,2.31a34.07,34.07,0,0,1,7.29,35.93,34,34,0,0,1,38.27,9.78A34.09,34.09,0,0,0,78.62,1" transform="translate(0.09 -0.5)" fill="none" stroke="#525252" stroke-miterlimit="10"/><path id="Path_774" data-name="Path 774" d="M8.59,57.09a34.06,34.06,0,0,0,48,48,34.06,34.06,0,0,1-9.78-38.2A34.14,34.14,0,0,1,10.1,58.77c-.54-.55-1-1.13-1.5-1.7" transform="translate(0.09 -0.5)" fill="#00677f" stroke="#525252" stroke-miterlimit="10"/><path id="Path_791" data-name="Path 791" d="M8.59,57.09a34.06,34.06,0,0,0,48,48,34.06,34.06,0,0,1-9.78-38.2A34.14,34.14,0,0,1,10.1,58.77c-.54-.55-1-1.13-1.5-1.7" transform="translate(0.09 -0.5)" fill="none" stroke="#525252" stroke-miterlimit="10"/><path id="Path_775" data-name="Path 775" d="M104.62,57.1h0A34,34,0,0,1,66.4,66.9a34.1,34.1,0,0,1-8.12,36.72c-.55.53-1.13,1-1.71,1.5a34.08,34.08,0,0,0,48.05-48" transform="translate(0.09 -0.5)" fill="none" stroke="#525252" stroke-miterlimit="10"/><path id="Path_775-2" data-name="Path 775-2" d="M104.62,57.1h0A34,34,0,0,1,66.4,66.9a34.1,34.1,0,0,1-8.12,36.72c-.55.53-1.13,1-1.71,1.5a34.08,34.08,0,0,0,48.05-48" transform="translate(0.09 -0.5)" fill="#d50032" stroke="#525252" stroke-miterlimit="10" opacity="0.1" style="isolation:isolate"/><path id="Path_771" data-name="Path 771" d="M34.56,1a34,34,0,0,0-26,56.08c.71-.84,1.47-1.66,2.28-2.45a34.13,34.13,0,0,1,36-7.28A34.08,34.08,0,0,1,56.58,9.08,34,34,0,0,0,34.56,1" transform="translate(0.09 -0.5)" fill="#7eddd3" stroke="#525252" stroke-miterlimit="10" opacity="0.1" style="isolation:isolate"/><path id="Path_790" data-name="Path 790" d="M34.56,1a34,34,0,0,0-26,56.08c.71-.84,1.47-1.66,2.28-2.45a34.13,34.13,0,0,1,36-7.28A34.08,34.08,0,0,1,56.58,9.08,34,34,0,0,0,34.56,1" transform="translate(0.09 -0.5)" fill="none" stroke="#525252" stroke-miterlimit="10"/></g></svg>