<svg id="Isolation_Mode" data-name="Isolation Mode" xmlns="http://www.w3.org/2000/svg" viewBox="0 0 55.146 55.151"><title>prime_care_logo_icon</title><path d="M37.711,1.75A15.751,15.751,0,0,0,27.566,5.468a15.353,15.353,0,0,1,1.139,1.063,15.678,15.678,0,0,1,3.358,16.54,15.685,15.685,0,0,1,17.618,4.5A15.7,15.7,0,0,0,37.711,1.75" style="fill:none;stroke:#fff;stroke-linecap:round;stroke-linejoin:round;stroke-width:3.5px"/><path d="M5.472,27.569A15.679,15.679,0,0,0,27.561,49.677a15.686,15.686,0,0,1-4.5-17.586,15.713,15.713,0,0,1-16.9-3.736c-.245-.253-.462-.521-.687-.786" style="fill:none;stroke:#fff;stroke-linecap:round;stroke-linejoin:round;stroke-width:3.5px"/><path d="M49.681,27.575h0a15.669,15.669,0,0,1-17.6,4.512,15.693,15.693,0,0,1-3.736,16.9c-.253.245-.523.465-.788.69a15.689,15.689,0,0,0,22.12-22.1" style="fill:none;stroke:#fff;stroke-linecap:round;stroke-linejoin:round;stroke-width:3.5px"/><path d="M17.427,1.755A15.674,15.674,0,0,0,5.472,27.569c.331-.388.679-.766,1.054-1.128a15.6,15.6,0,0,1,10.886-4.4,15.777,15.777,0,0,1,5.654,1.047,15.687,15.687,0,0,1,4.5-17.617A15.647,15.647,0,0,0,17.427,1.755" style="fill:none;stroke:#fff;stroke-linecap:round;stroke-linejoin:round;stroke-width:3.5px"/></svg>