<svg xmlns="http://www.w3.org/2000/svg" width="41.219" height="41.105" viewBox="0 0 41.219 41.105">
    <g id="prefix__small_blue_flower" data-name="small blue flower" transform="translate(1 1)">
        <path id="prefix__Union_39" d="M22.822 38.259a11.84 11.84 0 0 1-3.284-1.973c.2-.171.4-.337.6-.523a11.881 11.881 0 0 0 2.828-12.795 11.861 11.861 0 0 0 13.32-3.417 11.875 11.875 0 0 1-13.464 18.708zm-19.48-2.77a11.88 11.88 0 0 1-.525-15.942A11.869 11.869 0 0 1 19.542 2.814a11.879 11.879 0 0 0-3.406 13.337 11.931 11.931 0 0 0-4.279-.792 11.8 11.8 0 0 0-8.241 3.334c-.283.274-.547.56-.8.854.17.2.336.4.52.6a11.89 11.89 0 0 0 12.794 2.824 11.88 11.88 0 0 0 3.408 13.315 11.866 11.866 0 0 1-16.2-.8zm28.267-19.3a11.833 11.833 0 0 0-8.663-.046A11.868 11.868 0 0 0 20.4 3.619c-.277-.286-.565-.553-.863-.8a11.877 11.877 0 0 1 16.746 16.733 11.82 11.82 0 0 0-4.674-3.364z" data-name="Union 39" style="fill:none;stroke:#00677f;stroke-miterlimit:10;stroke-width:2px;opacity:.487"/>
    </g>
</svg>