<svg xmlns="http://www.w3.org/2000/svg" width="118.3" height="118.21"><g data-name="large grey flower"><path d="M49.469 114.696a35.19 35.19 0 009.761-5.864c-.6-.507-1.2-1-1.775-1.553a35.305 35.305 0 01-8.4-38.023A35.255 35.255 0 019.467 59.103a35.292 35.292 0 0040.002 55.593zm57.9-8.23a35.3 35.3 0 001.56-47.376A35.275 35.275 0 0059.223 9.363a35.3 35.3 0 0110.12 39.635 35.464 35.464 0 0112.719-2.353 35.081 35.081 0 0124.492 9.907 35.96 35.96 0 012.371 2.537c-.505.6-1 1.2-1.547 1.77a35.341 35.341 0 01-38.02 8.4 35.3 35.3 0 01-10.128 39.572 35.269 35.269 0 0048.135-2.366zM23.353 49.11a35.173 35.173 0 0125.748-.137 35.267 35.267 0 017.554-37.214 34.84 34.84 0 012.564-2.39A35.3 35.3 0 009.464 59.107a35.131 35.131 0 0113.889-9.997z" data-name="Union 42" fill="none" stroke="#525252" stroke-miterlimit="10" stroke-width="2" opacity=".487"/></g></svg>