<svg xmlns="http://www.w3.org/2000/svg" width="118.296" height="118.19"><g data-name="large aqua flower"><path d="M68.829 114.676a35.19 35.19 0 01-9.761-5.863c.6-.507 1.2-1 1.775-1.553a35.3 35.3 0 008.4-38.016 35.257 35.257 0 0039.587-10.151 35.288 35.288 0 01-40.006 55.583zm-57.894-8.229a35.291 35.291 0 01-1.56-47.368 35.272 35.272 0 0149.7-49.718A35.29 35.29 0 0048.956 48.99a35.467 35.467 0 00-12.719-2.352 35.083 35.083 0 00-24.491 9.905 35.946 35.946 0 00-2.371 2.536c.505.6 1 1.2 1.547 1.77a35.344 35.344 0 0038.018 8.4 35.291 35.291 0 0010.128 39.562 35.272 35.272 0 01-48.134-2.366zM94.944 49.1a35.176 35.176 0 00-25.742-.139 35.257 35.257 0 00-7.554-37.208 35.058 35.058 0 00-2.564-2.39 35.293 35.293 0 0149.753 49.729A35.13 35.13 0 0094.944 49.1z" data-name="Union 29" fill="none" stroke="#7eddd3" stroke-miterlimit="10" stroke-width="2" opacity=".487"/></g></svg>