<svg data-name="Layer 1" xmlns="http://www.w3.org/2000/svg" viewBox="0 0 113.3 113.17"><g data-name="flower color 2" stroke="#525252" stroke-miterlimit="10"><path data-name="Path 768" d="M78.71.5a34.2 34.2 0 00-22 8.08c.85.72 1.68 1.49 2.48 2.31a34.07 34.07 0 017.29 35.93 34 34 0 0138.27 9.78A34.09 34.09 0 0078.71.5" fill="#8a1538"/><path data-name="Path 766" d="M8.68 56.59a34.06 34.06 0 0048 48 34.06 34.06 0 01-9.78-38.2 34.14 34.14 0 01-36.71-8.12c-.54-.55-1-1.13-1.5-1.7" fill="#00677f" opacity=".1" style="isolation:isolate"/><path data-name="Path 787" d="M8.68 56.59a34.06 34.06 0 0048 48 34.06 34.06 0 01-9.78-38.2 34.14 34.14 0 01-36.71-8.12c-.54-.55-1-1.13-1.5-1.7" fill="none"/><path data-name="Path 769" d="M104.71 56.6h0a34 34 0 01-38.22 9.8 34.1 34.1 0 01-8.12 36.72c-.55.53-1.13 1-1.71 1.5a34.08 34.08 0 0048.05-48" fill="#d50032" opacity=".1" style="isolation:isolate"/><path data-name="Path 788" d="M104.71 56.6h0a34 34 0 01-38.22 9.8 34.1 34.1 0 01-8.12 36.72c-.55.53-1.13 1-1.71 1.5a34.08 34.08 0 0048.05-48" fill="none"/><path data-name="Path 767" d="M34.65.51a34 34 0 00-26 56.08c.71-.84 1.47-1.66 2.28-2.45a34.14 34.14 0 0136-7.29 34.08 34.08 0 019.74-38.27 34 34 0 00-22-8.07" fill="#7eddd3" opacity=".1" style="isolation:isolate"/><path data-name="Path 786" d="M34.65.51a34 34 0 00-26 56.08c.71-.84 1.47-1.66 2.28-2.45a34.14 34.14 0 0136-7.29 34.08 34.08 0 019.74-38.27 34 34 0 00-22-8.07" fill="none"/></g></svg>