<svg xmlns="http://www.w3.org/2000/svg" width="118.296" height="118.19" viewBox="0 0 118.296 118.19">
    <g id="prefix__large_aqua_flower" data-name="large aqua flower" transform="translate(1.002 1)">
        <path id="prefix__Union_29" d="M67.827 113.676a35.19 35.19 0 0 1-9.761-5.863c.6-.507 1.2-1 1.775-1.553a35.3 35.3 0 0 0 8.4-38.016 35.257 35.257 0 0 0 39.587-10.151 35.288 35.288 0 0 1-40.006 55.583zm-57.894-8.229a35.291 35.291 0 0 1-1.56-47.368 35.272 35.272 0 0 1 49.7-49.718A35.29 35.29 0 0 0 47.954 47.99a35.467 35.467 0 0 0-12.719-2.352 35.083 35.083 0 0 0-24.491 9.905c-.842.813-1.626 1.663-2.371 2.536.505.6 1 1.2 1.547 1.77a35.344 35.344 0 0 0 38.018 8.4 35.291 35.291 0 0 0 10.128 39.562 35.272 35.272 0 0 1-48.134-2.366zM93.942 48.1a35.176 35.176 0 0 0-25.742-.139 35.257 35.257 0 0 0-7.554-37.208c-.822-.848-1.68-1.644-2.564-2.39a35.293 35.293 0 0 1 49.753 49.729A35.13 35.13 0 0 0 93.942 48.1z" data-name="Union 29" style="fill:none;stroke:#7eddd3;stroke-miterlimit:10;stroke-width:2px;opacity:.487"/>
    </g>
</svg>
