<svg id="Layer_1" data-name="Layer 1" xmlns="http://www.w3.org/2000/svg" viewBox="0 0 113.3 113.17"><g id="flower_color_2" data-name="flower color 2"><path id="Path_768" data-name="Path 768" d="M78.62.5a34.2,34.2,0,0,0-22,8.08c.85.72,1.68,1.49,2.48,2.31a34.07,34.07,0,0,1,7.29,35.93,34,34,0,0,1,38.27,9.78A34.09,34.09,0,0,0,78.62.5" transform="translate(0.09 0)" fill="#8a1538" stroke="#525252" stroke-miterlimit="10"/><path id="Path_766" data-name="Path 766" d="M8.59,56.59a34.06,34.06,0,0,0,48,48,34.06,34.06,0,0,1-9.78-38.2A34.14,34.14,0,0,1,10.1,58.27c-.54-.55-1-1.13-1.5-1.7" transform="translate(0.09 0)" fill="#00677f" stroke="#525252" stroke-miterlimit="10" opacity="0.1" style="isolation:isolate"/><path id="Path_787" data-name="Path 787" d="M8.59,56.59a34.06,34.06,0,0,0,48,48,34.06,34.06,0,0,1-9.78-38.2A34.14,34.14,0,0,1,10.1,58.27c-.54-.55-1-1.13-1.5-1.7" transform="translate(0.09 0)" fill="none" stroke="#525252" stroke-miterlimit="10"/><path id="Path_769" data-name="Path 769" d="M104.62,56.6h0A34,34,0,0,1,66.4,66.4a34.1,34.1,0,0,1-8.12,36.72c-.55.53-1.13,1-1.71,1.5a34.08,34.08,0,0,0,48.05-48" transform="translate(0.09 0)" fill="#d50032" stroke="#525252" stroke-miterlimit="10" opacity="0.1" style="isolation:isolate"/><path id="Path_788" data-name="Path 788" d="M104.62,56.6h0A34,34,0,0,1,66.4,66.4a34.1,34.1,0,0,1-8.12,36.72c-.55.53-1.13,1-1.71,1.5a34.08,34.08,0,0,0,48.05-48" transform="translate(0.09 0)" fill="none" stroke="#525252" stroke-miterlimit="10"/><path id="Path_767" data-name="Path 767" d="M34.56.51a34,34,0,0,0-26,56.08c.71-.84,1.47-1.66,2.28-2.45a34.14,34.14,0,0,1,36-7.29A34.08,34.08,0,0,1,56.58,8.58a34,34,0,0,0-22-8.07" transform="translate(0.09 0)" fill="#7eddd3" stroke="#525252" stroke-miterlimit="10" opacity="0.1" style="isolation:isolate"/><path id="Path_786" data-name="Path 786" d="M34.56.51a34,34,0,0,0-26,56.08c.71-.84,1.47-1.66,2.28-2.45a34.14,34.14,0,0,1,36-7.29A34.08,34.08,0,0,1,56.58,8.58a34,34,0,0,0-22-8.07" transform="translate(0.09 0)" fill="none" stroke="#525252" stroke-miterlimit="10"/></g></svg>