<svg xmlns="http://www.w3.org/2000/svg" viewBox="0 0 26.272 26.21">
    <g transform="translate(.5 .5)">
        <path d="M14.707 24.665a7.629 7.629 0 0 1-2.116-1.272c.13-.11.261-.217.385-.337a7.662 7.662 0 0 0 1.824-8.249 7.641 7.641 0 0 0 8.584-2.2 7.654 7.654 0 0 1-8.675 12.06zM2.154 22.879A7.661 7.661 0 0 1 1.816 12.6 7.65 7.65 0 0 1 12.593 1.814a7.66 7.66 0 0 0-2.2 8.6A7.686 7.686 0 0 0 7.64 9.9a7.6 7.6 0 0 0-5.31 2.149c-.183.176-.353.361-.514.55.11.129.216.26.335.384a7.66 7.66 0 0 0 8.244 1.823 7.661 7.661 0 0 0 2.2 8.584 7.644 7.644 0 0 1-10.437-.513zM20.37 10.436a7.623 7.623 0 0 0-5.583-.03 7.654 7.654 0 0 0-1.638-8.073c-.178-.184-.364-.357-.556-.519A7.656 7.656 0 0 1 23.381 12.6a7.617 7.617 0 0 0-3.011-2.164z" style="fill:none;stroke:#525252;stroke-miterlimit:10;opacity:.487"/>
    </g>
</svg>