<svg xmlns="http://www.w3.org/2000/svg" width="41.219" height="41.105"><defs><style>.prefix__cls-1{fill:none;stroke:#b5b5b5;stroke-miterlimit:10;stroke-width:2px;opacity:.487}</style></defs><g id="prefix__small_light_grey_flower" data-name="small light grey flower" transform="translate(1.001 1)"><g id="prefix__Group_623" data-name="Group 623"><path id="prefix__Path_1631" d="M194.894 258.39a11.922 11.922 0 00-7.68 2.815c.3.251.586.519.863.8a11.87 11.87 0 012.542 12.523 11.872 11.872 0 0113.337 3.41 11.882 11.882 0 00-9.061-19.552" class="prefix__cls-1" data-name="Path 1631" transform="translate(-167.672 -258.39)"/><path id="prefix__Path_1632" d="M150.55 297.877a11.869 11.869 0 0016.721 16.738 11.88 11.88 0 01-3.408-13.315 11.89 11.89 0 01-12.792-2.828c-.185-.192-.35-.395-.52-.6" class="prefix__cls-1" data-name="Path 1632" transform="translate(-147.733 -278.329)"/><path id="prefix__Path_1633" d="M203.952 297.886a11.861 11.861 0 01-13.32 3.416A11.881 11.881 0 01187.8 314.1c-.192.186-.4.352-.6.522a11.877 11.877 0 0016.745-16.733" class="prefix__cls-1" data-name="Path 1633" transform="translate(-167.669 -278.334)"/><path id="prefix__Path_1634" d="M159.6 258.4a11.867 11.867 0 00-9.05 19.544c.25-.294.514-.58.8-.854a11.8 11.8 0 018.241-3.334 11.935 11.935 0 014.279.792 11.878 11.878 0 013.406-13.337 11.843 11.843 0 00-7.676-2.811" class="prefix__cls-1" data-name="Path 1634" transform="translate(-147.734 -258.394)"/></g></g></svg>