<svg data-name="Layer 1" xmlns="http://www.w3.org/2000/svg" viewBox="0 0 53 53"><path d="M26.44 40.06A13.64 13.64 0 1012.87 26.4a13.61 13.61 0 0013.62 13.7zm0-22.41a8.84 8.84 0 11-8.84 8.84 8.83 8.83 0 018.89-8.84zm14.15-2.17a3.2 3.2 0 10-3.23-3.21 3.19 3.19 0 003.28 3.24z" fill="#fff"/><path d="M1.36 43.86a13.51 13.51 0 007.75 7.75 19.47 19.47 0 006.44 1.23c2.83.16 3.73.16 10.94.16s8.1 0 10.93-.16a19.42 19.42 0 006.44-1.23 13.51 13.51 0 007.75-7.75 19.42 19.42 0 001.23-6.44c.13-2.83.16-3.7.16-10.91s0-8.1-.16-10.93a19.42 19.42 0 00-1.23-6.44 13.51 13.51 0 00-7.75-7.75A19.42 19.42 0 0037.42.16C34.59 0 33.68 0 26.49 0s-8.11 0-10.91.13a19.42 19.42 0 00-6.44 1.23 13.51 13.51 0 00-7.75 7.75 19.47 19.47 0 00-1.23 6.44C0 18.38 0 19.29 0 26.49s0 8.1.13 10.93a19.42 19.42 0 001.23 6.44zm3.56-28.13a14.52 14.52 0 01.9-4.92 8.76 8.76 0 015.07-5 14.78 14.78 0 014.92-.91c2.8-.16 3.64-.16 10.71-.16s7.93 0 10.72.16a14.78 14.78 0 014.92.91 8.78 8.78 0 015 5 14.49 14.49 0 01.87 4.92c.11 2.84.11 3.68.11 10.76s0 7.92-.07 10.72a14.78 14.78 0 01-.91 4.92 8.76 8.76 0 01-5.11 5.06 14.78 14.78 0 01-4.92.91c-2.8.16-3.64.16-10.71.16s-7.93 0-10.72-.16a14.78 14.78 0 01-4.92-.91 8.77 8.77 0 01-5-5.11 14.78 14.78 0 01-.91-4.92c-.16-2.8-.16-3.64-.16-10.71s.08-7.93.21-10.72z" fill="#fff"/></svg>