<svg xmlns="http://www.w3.org/2000/svg" width="118.3" height="118.19"><g data-name="flower large"><path d="M49.469 114.676a35.192 35.192 0 009.761-5.863c-.6-.507-1.2-1-1.775-1.553a35.3 35.3 0 01-8.4-38.016A35.259 35.259 0 019.462 59.09a35.288 35.288 0 0040.007 55.586zm57.9-8.229a35.29 35.29 0 001.56-47.368A35.273 35.273 0 0059.223 9.361a35.29 35.29 0 0110.12 39.629 35.469 35.469 0 0112.719-2.352 35.084 35.084 0 0124.492 9.905 35.946 35.946 0 012.371 2.536c-.505.6-1 1.2-1.547 1.77a35.346 35.346 0 01-38.02 8.4 35.291 35.291 0 01-10.128 39.564 35.274 35.274 0 0048.135-2.366zM23.353 49.099a35.179 35.179 0 0125.748-.137 35.256 35.256 0 017.554-37.208 35.058 35.058 0 012.564-2.39A35.293 35.293 0 009.464 59.09a35.131 35.131 0 0113.889-9.991z" data-name="Union 48" fill="none" stroke="#fabacd" stroke-miterlimit="10" stroke-width="2" opacity=".487"/></g></svg>