<svg xmlns="http://www.w3.org/2000/svg" width="80.266" height="80.21"><g data-name="flower medium"><path d="M46.647 77.518a23.681 23.681 0 01-6.569-3.947c.4-.341.81-.674 1.194-1.045a23.762 23.762 0 005.656-25.59A23.724 23.724 0 0073.571 40.1a23.751 23.751 0 01-26.924 37.418zM7.686 71.979a23.759 23.759 0 01-1.05-31.884 23.74 23.74 0 0133.45-33.467A23.758 23.758 0 0033.273 33.3a23.864 23.864 0 00-8.559-1.583 23.607 23.607 0 00-16.482 6.671 25.149 25.149 0 00-1.6 1.707c.34.4.671.808 1.041 1.191a23.782 23.782 0 0025.586 5.655 23.759 23.759 0 006.816 26.63 23.734 23.734 0 01-32.389-1.592zm56.537-38.6a23.668 23.668 0 00-17.328-.092 23.736 23.736 0 00-5.083-25.048 23.68 23.68 0 00-1.725-1.609A23.754 23.754 0 0173.569 40.1a23.642 23.642 0 00-9.346-6.724z" data-name="Union 20" fill="none" stroke="#525252" stroke-miterlimit="10" stroke-width="2" opacity=".487"/></g></svg>