<svg xmlns="http://www.w3.org/2000/svg" viewBox="0 0 318.801 79.142"><path d="M55 0a24.086 24.086 0 00-15.518 5.686q.9.762 1.742 1.625a23.975 23.975 0 015.135 25.3 23.99 23.99 0 0126.946 6.888A24 24 0 0055 0" fill="#8a1538"/><path d="M5.692 39.487A23.979 23.979 0 0039.474 73.3a23.994 23.994 0 01-6.885-26.9 24.026 24.026 0 01-25.846-5.711c-.374-.387-.707-.8-1.051-1.2" fill="#00677f"/><path d="M73.305 39.5a23.965 23.965 0 01-26.911 6.9 24 24 0 01-5.714 25.843c-.388.375-.8.71-1.206 1.055A23.994 23.994 0 0073.305 39.5" fill="#d50032"/><path d="M23.977.007a23.973 23.973 0 00-18.285 39.48 24.161 24.161 0 011.612-1.725 23.849 23.849 0 0116.65-6.735 24.119 24.119 0 018.646 1.6 23.991 23.991 0 016.882-26.942A23.933 23.933 0 0023.977.007" fill="#7eddd3"/><path d="M98.194 5.1h10.129c7.152 0 11.809 4.033 11.809 10.657v.1c0 7.105-5.329 10.993-12.242 10.993h-6.1V38.7h-3.6zm9.793 18.482c5.232 0 8.5-3.025 8.5-7.633V15.9c0-4.945-3.216-7.489-8.352-7.489h-6.337v15.17zm17.422-9.89h3.457v5.52c1.488-3.5 4.512-6.048 8.593-5.856V17.1h-.193c-4.656 0-8.4 3.265-8.4 9.7v11.9h-3.457zm16.945-9.217h3.84v4.081h-3.84zm.192 9.217H146V38.7h-3.456zm10.847 0h3.457v3.984c1.392-2.352 3.408-4.464 7.008-4.464a7.184 7.184 0 016.913 4.56c1.536-2.448 3.792-4.56 7.68-4.56 4.849 0 7.969 3.36 7.969 9.169V38.7h-3.456V23.293c0-4.609-1.968-6.961-5.425-6.961-3.264 0-5.9 2.641-5.9 7.105V38.7h-3.456V23.244c0-4.464-1.968-6.912-5.425-6.912-3.312 0-5.9 2.928-5.9 7.153V38.7h-3.457zm38.544 12.721v-.24c0-7.633 4.464-12.961 10.321-12.961 6.337 0 10.033 5.376 10.033 12.913 0 .336 0 1.008-.048 1.44h-16.8c.384 5.52 3.745 8.593 7.729 8.593a8.8 8.8 0 006.48-2.88l1.968 2.208a11.238 11.238 0 01-8.592 3.744c-6.146 0-11.091-4.896-11.091-12.817zm16.9-1.536c-.239-4.8-2.5-8.641-6.576-8.641-3.745 0-6.433 3.456-6.817 8.641zm20.634-2.784v-.288c0-10.177 6.337-17.186 14.738-17.186a13.992 13.992 0 0110.224 4.128l-2.208 2.737a11.051 11.051 0 00-8.064-3.5c-6.192 0-10.945 5.665-10.945 13.778v.192c0 8.256 4.753 13.873 10.945 13.873 3.456 0 5.856-1.44 8.305-3.745l2.16 2.5a14.283 14.283 0 01-10.657 4.608c-8.257-.008-14.498-6.873-14.498-17.097zm28.704 9.36v-.191c0-5.185 3.648-8.065 9.216-8.065a20.313 20.313 0 016.433 1.008v-1.488c0-4.033-2.352-6.193-6.384-6.193a13.644 13.644 0 00-6.385 1.68l-1.1-2.832a17.228 17.228 0 017.873-2.016 9.415 9.415 0 017.009 2.5 9.287 9.287 0 012.4 6.768V38.7h-3.409v-3.646a8.628 8.628 0 01-7.632 4.176c-4.181 0-8.021-2.83-8.021-7.777zm15.7-1.44v-3.12a17.639 17.639 0 00-6.049-1.008c-4.032 0-6.192 2.016-6.192 5.233v.144a4.978 4.978 0 005.328 5.088c3.79 0 6.911-2.64 6.911-6.337zm10.076-16.321h3.456v5.52c1.488-3.5 4.513-6.048 8.593-5.856V17.1h-.193c-4.656 0-8.4 3.265-8.4 9.7v11.9h-3.456zm14.495 12.721v-.24c0-7.633 4.465-12.961 10.321-12.961 6.337 0 10.034 5.376 10.034 12.913 0 .336 0 1.008-.048 1.44h-16.8c.384 5.52 3.744 8.593 7.728 8.593a8.8 8.8 0 006.481-2.88l1.968 2.208a11.238 11.238 0 01-8.592 3.744c-6.147 0-11.092-4.896-11.092-12.817zm16.9-1.536c-.24-4.8-2.5-8.641-6.577-8.641-3.744 0-6.432 3.456-6.816 8.641zM96.5 64.864v-.24c0-8.478 5.38-14.317 12.513-14.317a12 12 0 018.682 3.438l-1.875 2.281a9.469 9.469 0 00-6.848-2.92c-5.258 0-9.293 4.72-9.293 11.478v.16c0 6.879 4.035 11.558 9.293 11.558 2.935 0 4.973-1.2 7.052-3.119l1.834 2.079a12.235 12.235 0 01-9.049 3.84C101.8 79.1 96.5 73.382 96.5 64.864zm24.62 3.599v-.279c0-6.079 4.035-10.719 9.456-10.719s9.416 4.6 9.416 10.679v.239c0 6.079-4.035 10.759-9.456 10.759-5.462 0-9.416-4.6-9.416-10.679zm15.9-.04v-.2c0-4.68-2.894-8.159-6.481-8.159-3.75 0-6.4 3.479-6.4 8.119v.2c0 4.68 2.813 8.159 6.44 8.159 3.706 0 6.438-3.519 6.438-8.119zm6.726.04v-.279c0-6.079 4.035-10.719 9.456-10.719s9.416 4.6 9.416 10.679v.239c0 6.079-4.035 10.759-9.456 10.759-5.462 0-9.416-4.6-9.416-10.679zm15.9-.04v-.2c0-4.68-2.893-8.159-6.48-8.159-3.75 0-6.4 3.479-6.4 8.119v.2c0 4.68 2.812 8.159 6.44 8.159 3.705 0 6.436-3.519 6.436-8.119zm7.867-10.557h2.935v4.6a7.5 7.5 0 017.3-4.879V60.7h-.163c-3.954 0-7.133 2.72-7.133 8.08v9.92h-2.935zM179.948 68.5v-.4c0-6.919 4.116-10.639 8.478-10.639 3.424 0 5.462 2 6.888 4.279V49.827h2.935V78.7h-2.935v-4c-1.426 2.36-3.546 4.4-6.888 4.4-4.362 0-8.478-3.678-8.478-10.6zm15.489-.04v-.36c0-4.92-3.057-8.039-6.4-8.039-3.383 0-6.073 2.92-6.073 8.039v.319c0 5.119 2.771 8.079 6.073 8.079 3.343.002 6.4-3.116 6.4-8.035zm8.93-18.273h3.261v3.4h-3.261zm.163 7.679h2.935V78.7h-2.935zm9.214 0h2.934v3.4a6.84 6.84 0 016.278-3.8c4.361 0 6.929 2.92 6.929 7.6V78.7h-2.934V65.864c0-3.719-1.794-5.8-4.892-5.8s-5.381 2.439-5.381 5.959V78.7h-2.934zm20.505 14.796V72.5c0-4.319 3.1-6.719 7.826-6.719a17.581 17.581 0 015.463.839v-1.236c0-3.359-2-5.159-5.422-5.159a11.761 11.761 0 00-5.42 1.4l-.938-2.359a14.842 14.842 0 016.685-1.68 8.081 8.081 0 015.951 2.08 7.655 7.655 0 012.038 5.639V78.7h-2.894v-3.04a7.358 7.358 0 01-6.481 3.48c-3.546.002-6.808-2.358-6.808-6.478zm13.329-1.2v-2.6a15.19 15.19 0 00-5.135-.84c-3.424 0-5.259 1.679-5.259 4.359v.12a4.194 4.194 0 004.525 4.24c3.22.002 5.869-2.199 5.869-5.278zm9.298 2.401V60.425h-2.568v-2.559h2.568v-6.08h2.934v6.08h5.544v2.559h-5.544v12.957c0 2.24 1.223 3 3.057 3a6.733 6.733 0 002.487-.559V78.3a7.146 7.146 0 01-3.179.72c-3.017.002-5.299-1.438-5.299-5.157zm13.289-23.676h3.261v3.4h-3.261zm.163 7.679h2.935V78.7h-2.935zm8.072 10.597v-.279c0-6.079 4.035-10.719 9.457-10.719s9.415 4.6 9.415 10.679v.239c0 6.079-4.035 10.759-9.456 10.759-5.461 0-9.416-4.6-9.416-10.679zm15.9-.04v-.2c0-4.68-2.894-8.159-6.481-8.159-3.75 0-6.4 3.479-6.4 8.119v.2c0 4.68 2.812 8.159 6.44 8.159 3.707 0 6.441-3.519 6.441-8.119zm7.867-10.557h2.933v3.4a6.839 6.839 0 016.278-3.8c4.361 0 6.929 2.92 6.929 7.6V78.7h-2.935V65.864c0-3.719-1.794-5.8-4.891-5.8s-5.381 2.436-5.381 5.96V78.7h-2.935z" fill="#00677f"/></svg>