<svg xmlns="http://www.w3.org/2000/svg" viewBox="0 0 26.272 26.21"><path d="M15.207 25.165a7.629 7.629 0 01-2.116-1.272c.13-.11.261-.217.385-.337a7.662 7.662 0 001.824-8.249 7.641 7.641 0 008.584-2.2 7.654 7.654 0 01-8.675 12.06zM2.654 23.379A7.661 7.661 0 012.316 13.1 7.65 7.65 0 0113.093 2.314a7.66 7.66 0 00-2.2 8.6A7.686 7.686 0 008.14 10.4a7.6 7.6 0 00-5.31 2.149 7.576 7.576 0 00-.514.55c.11.129.216.26.335.384a7.66 7.66 0 008.244 1.823 7.661 7.661 0 002.2 8.584 7.644 7.644 0 01-10.437-.513zM20.87 10.936a7.623 7.623 0 00-5.583-.03 7.654 7.654 0 00-1.638-8.073 7.527 7.527 0 00-.556-.519A7.656 7.656 0 0123.881 13.1a7.617 7.617 0 00-3.011-2.164z" fill="none" stroke="#525252" stroke-miterlimit="10" opacity=".487"/></svg>