<svg data-name="Layer 1" xmlns="http://www.w3.org/2000/svg" viewBox="0 0 48.55 46.84"><path d="M48.55 25.13c-.65-4.61-2.76-8.29-7.36-9.74s-8.82-1.18-12.37 2.5c-.26.27-.53.79-.92.66s-.4-.79-.4-1.18c.13-1.84-.79-2.24-2.37-2.11h-5.52c-2.63 0-2.63 0-2.63 2.63v13.16c0 4.47 0 9.08-.13 13.55 0 1.58.52 2.37 2.23 2.24a49.17 49.17 0 016.19 0c1.71.13 2.1-.66 2.1-2.24V32.23a25.73 25.73 0 01.13-4.47A5.55 5.55 0 0133 23c2.76-.13 4.47 1.45 5.13 4.35a16.29 16.29 0 01.26 3.55v10.54c0 5.53 0 5.53 5.4 5.53C49 47 49.08 47 49 41.84c-.18-5.53.34-11.18-.45-16.71zM5.93 0C2.64.13.14 2.37 0 5.39s2.37 5.53 5.79 5.53a5.6 5.6 0 006.06-5.39A5.58 5.58 0 005.93 0zM9 15.26a49 49 0 01-6.18 0c-1.71 0-2.24.66-2.24 2.24v13.55c0 4.47.13 9.08 0 13.68 0 1.58.53 2.37 2.24 2.24A49 49 0 019 47c1.71 0 2.24-.66 2.24-2.24V17.5c-.05-1.58-.58-2.37-2.24-2.24z" fill="#fff"/></svg>