<svg xmlns="http://www.w3.org/2000/svg" width="41.22" height="41.105" viewBox="0 0 41.22 41.105">
    <g id="prefix__flower_small" data-name="flower small" transform="translate(1.124 1)">
        <path id="prefix__Union_44" d="M22.822.846a11.84 11.84 0 0 0-3.284 1.973c.2.171.4.337.6.523a11.881 11.881 0 0 1 2.828 12.795 11.861 11.861 0 0 1 13.32 3.417A11.875 11.875 0 0 0 22.822.846zm-19.48 2.77a11.88 11.88 0 0 0-.525 15.942 11.869 11.869 0 0 0 16.725 16.733 11.879 11.879 0 0 1-3.406-13.337 11.931 11.931 0 0 1-4.279.792 11.8 11.8 0 0 1-8.241-3.334c-.283-.274-.547-.56-.8-.854.17-.2.336-.4.52-.6a11.89 11.89 0 0 1 12.794-2.824 11.88 11.88 0 0 1 3.408-13.315 11.866 11.866 0 0 0-16.2.8zm28.267 19.3a11.833 11.833 0 0 1-8.663.046A11.868 11.868 0 0 1 20.4 35.486c-.277.286-.565.553-.863.8a11.877 11.877 0 0 0 16.745-16.733 11.82 11.82 0 0 1-4.673 3.364z" data-name="Union 44" transform="rotate(180 19.547 19.552)" style="fill:none;stroke:#7eddd3;stroke-miterlimit:10;stroke-width:2px;opacity:.487"/>
    </g>
</svg>
