<svg xmlns="http://www.w3.org/2000/svg" width="80.266" height="80.21" viewBox="0 0 80.266 80.21">
    <g id="prefix__flower_medium" data-name="flower medium" transform="translate(1.001 1)">
        <path id="prefix__Union_20" d="M45.646 76.518a23.681 23.681 0 0 1-6.569-3.947c.4-.341.81-.674 1.194-1.045a23.762 23.762 0 0 0 5.656-25.59A23.724 23.724 0 0 0 72.57 39.1a23.751 23.751 0 0 1-26.924 37.418zM6.685 70.979a23.759 23.759 0 0 1-1.05-31.884 23.74 23.74 0 0 1 33.45-33.467A23.758 23.758 0 0 0 32.272 32.3a23.864 23.864 0 0 0-8.559-1.583 23.607 23.607 0 0 0-16.482 6.671c-.567.547-1.095 1.12-1.6 1.707.34.4.671.808 1.041 1.191a23.782 23.782 0 0 0 25.586 5.655 23.759 23.759 0 0 0 6.816 26.63 23.734 23.734 0 0 1-32.389-1.592zm56.537-38.6a23.668 23.668 0 0 0-17.328-.092 23.736 23.736 0 0 0-5.083-25.048c-.553-.571-1.13-1.106-1.725-1.609A23.754 23.754 0 0 1 72.568 39.1a23.642 23.642 0 0 0-9.346-6.724z" data-name="Union 20" style="fill:none;stroke:#525252;stroke-miterlimit:10;stroke-width:2px;opacity:.487"/>
    </g>
</svg>