<svg id="Foreground" xmlns="http://www.w3.org/2000/svg" viewBox="0 0 318.801 79.142"><title>prime_care_logo</title><path d="M55,0A24.086,24.086,0,0,0,39.482,5.686q.9.762,1.742,1.625a23.975,23.975,0,0,1,5.135,25.3,23.99,23.99,0,0,1,26.946,6.888A24,24,0,0,0,55,0" style="fill:#8a1538"/><path d="M5.692,39.487A23.979,23.979,0,0,0,39.474,73.3a23.994,23.994,0,0,1-6.885-26.9A24.026,24.026,0,0,1,6.743,40.689c-.374-.387-.707-.8-1.051-1.2" style="fill:#00677f"/><path d="M73.305,39.5h0a23.965,23.965,0,0,1-26.911,6.9A24,24,0,0,1,40.68,72.243c-.388.375-.8.71-1.206,1.055A23.994,23.994,0,0,0,73.305,39.5" style="fill:#d50032"/><path d="M23.977.007A23.973,23.973,0,0,0,5.692,39.487c.506-.594,1.039-1.172,1.612-1.725a23.849,23.849,0,0,1,16.65-6.735,24.119,24.119,0,0,1,8.646,1.6A23.991,23.991,0,0,1,39.482,5.685,23.933,23.933,0,0,0,23.977.007" style="fill:#7eddd3"/><path d="M98.194,5.1h10.129c7.152,0,11.809,4.033,11.809,10.657v.1c0,7.105-5.329,10.993-12.242,10.993h-6.1V38.7h-3.6Zm9.793,18.482c5.232,0,8.5-3.025,8.5-7.633V15.9c0-4.945-3.216-7.489-8.352-7.489h-6.337v15.17Z" style="fill:#00677f"/><path d="M125.409,13.692h3.457v5.52c1.488-3.5,4.512-6.048,8.593-5.856V17.1h-.193c-4.656,0-8.4,3.265-8.4,9.7V38.7h-3.457Z" style="fill:#00677f"/><path d="M142.354,4.475h3.84V8.556h-3.84Zm.192,9.217H146V38.7h-3.456Z" style="fill:#00677f"/><path d="M153.393,13.692h3.457v3.984c1.392-2.352,3.408-4.464,7.008-4.464a7.184,7.184,0,0,1,6.913,4.56c1.536-2.448,3.792-4.56,7.68-4.56,4.849,0,7.969,3.36,7.969,9.169V38.7h-3.456V23.293c0-4.609-1.968-6.961-5.425-6.961-3.264,0-5.9,2.641-5.9,7.105V38.7h-3.456V23.244c0-4.464-1.968-6.912-5.425-6.912-3.312,0-5.9,2.928-5.9,7.153V38.7h-3.457Z" style="fill:#00677f"/><path d="M191.937,26.413v-.24c0-7.633,4.464-12.961,10.321-12.961,6.337,0,10.033,5.376,10.033,12.913,0,.336,0,1.008-.048,1.44h-16.8c.384,5.52,3.745,8.593,7.729,8.593a8.8,8.8,0,0,0,6.48-2.88l1.968,2.208a11.238,11.238,0,0,1-8.592,3.744C196.882,39.23,191.937,34.334,191.937,26.413Zm16.9-1.536c-.239-4.8-2.5-8.641-6.576-8.641-3.745,0-6.433,3.456-6.817,8.641Z" style="fill:#00677f"/><path d="M229.471,22.093v-.288c0-10.177,6.337-17.186,14.738-17.186a13.992,13.992,0,0,1,10.224,4.128l-2.208,2.737a11.051,11.051,0,0,0-8.064-3.5c-6.192,0-10.945,5.665-10.945,13.778v.192c0,8.256,4.753,13.873,10.945,13.873,3.456,0,5.856-1.44,8.305-3.745l2.16,2.5a14.283,14.283,0,0,1-10.657,4.608C235.712,39.182,229.471,32.317,229.471,22.093Z" style="fill:#00677f"/><path d="M258.175,31.453v-.191c0-5.185,3.648-8.065,9.216-8.065a20.313,20.313,0,0,1,6.433,1.008V22.717c0-4.033-2.352-6.193-6.384-6.193a13.644,13.644,0,0,0-6.385,1.68l-1.1-2.832a17.228,17.228,0,0,1,7.873-2.016,9.415,9.415,0,0,1,7.009,2.5,9.287,9.287,0,0,1,2.4,6.768V38.7h-3.409V35.054a8.628,8.628,0,0,1-7.632,4.176C262.015,39.23,258.175,36.4,258.175,31.453Zm15.7-1.44v-3.12a17.639,17.639,0,0,0-6.049-1.008c-4.032,0-6.192,2.016-6.192,5.233v.144a4.978,4.978,0,0,0,5.328,5.088C270.752,36.35,273.873,33.71,273.873,30.013Z" style="fill:#00677f"/><path d="M283.951,13.692h3.456v5.52c1.488-3.5,4.513-6.048,8.593-5.856V17.1h-.193c-4.656,0-8.4,3.265-8.4,9.7V38.7h-3.456Z" style="fill:#00677f"/><path d="M298.446,26.413v-.24c0-7.633,4.465-12.961,10.321-12.961,6.337,0,10.034,5.376,10.034,12.913,0,.336,0,1.008-.048,1.44h-16.8c.384,5.52,3.744,8.593,7.728,8.593a8.8,8.8,0,0,0,6.481-2.88l1.968,2.208a11.238,11.238,0,0,1-8.592,3.744C303.391,39.23,298.446,34.334,298.446,26.413Zm16.9-1.536c-.24-4.8-2.5-8.641-6.577-8.641-3.744,0-6.432,3.456-6.816,8.641Z" style="fill:#00677f"/><path d="M96.5,64.864v-.24c0-8.478,5.38-14.317,12.513-14.317a12,12,0,0,1,8.682,3.438l-1.875,2.281a9.469,9.469,0,0,0-6.848-2.92c-5.258,0-9.293,4.72-9.293,11.478v.16c0,6.879,4.035,11.558,9.293,11.558,2.935,0,4.973-1.2,7.052-3.119l1.834,2.079a12.235,12.235,0,0,1-9.049,3.84C101.8,79.1,96.5,73.382,96.5,64.864Z" style="fill:#00677f"/><path d="M121.12,68.463v-.279c0-6.079,4.035-10.719,9.456-10.719s9.416,4.6,9.416,10.679v.239c0,6.079-4.035,10.759-9.456,10.759C125.074,79.142,121.12,74.542,121.12,68.463Zm15.9-.04v-.2c0-4.68-2.894-8.159-6.481-8.159-3.75,0-6.4,3.479-6.4,8.119v.2c0,4.68,2.813,8.159,6.44,8.159C134.285,76.542,137.017,73.023,137.017,68.423Z" style="fill:#00677f"/><path d="M143.746,68.463v-.279c0-6.079,4.035-10.719,9.456-10.719s9.416,4.6,9.416,10.679v.239c0,6.079-4.035,10.759-9.456,10.759C147.7,79.142,143.746,74.542,143.746,68.463Zm15.9-.04v-.2c0-4.68-2.893-8.159-6.48-8.159-3.75,0-6.4,3.479-6.4,8.119v.2c0,4.68,2.812,8.159,6.44,8.159C156.911,76.542,159.642,73.023,159.642,68.423Z" style="fill:#00677f"/><path d="M167.513,57.866h2.935v4.6a7.5,7.5,0,0,1,7.3-4.879V60.7h-.163c-3.954,0-7.133,2.72-7.133,8.08V78.7h-2.935Z" style="fill:#00677f"/><path d="M179.948,68.5v-.4c0-6.919,4.116-10.639,8.478-10.639,3.424,0,5.462,2,6.888,4.279V49.827h2.935V78.7h-2.935v-4c-1.426,2.36-3.546,4.4-6.888,4.4C184.064,79.1,179.948,75.422,179.948,68.5Zm15.489-.04V68.1c0-4.92-3.057-8.039-6.4-8.039-3.383,0-6.073,2.92-6.073,8.039v.319c0,5.119,2.771,8.079,6.073,8.079C192.38,76.5,195.437,73.382,195.437,68.463Z" style="fill:#00677f"/><path d="M204.367,50.187h3.261v3.4h-3.261Zm.163,7.679h2.935V78.7H204.53Z" style="fill:#00677f"/><path d="M213.744,57.866h2.934v3.4a6.84,6.84,0,0,1,6.278-3.8c4.361,0,6.929,2.92,6.929,7.6V78.7h-2.934V65.864c0-3.719-1.794-5.8-4.892-5.8s-5.381,2.439-5.381,5.959V78.7h-2.934Z" style="fill:#00677f"/><path d="M234.249,72.662V72.5c0-4.319,3.1-6.719,7.826-6.719a17.581,17.581,0,0,1,5.463.839V65.384c0-3.359-2-5.159-5.422-5.159a11.761,11.761,0,0,0-5.42,1.4l-.938-2.359a14.842,14.842,0,0,1,6.685-1.68,8.081,8.081,0,0,1,5.951,2.08,7.655,7.655,0,0,1,2.038,5.639V78.7h-2.894v-3.04a7.358,7.358,0,0,1-6.481,3.48C237.511,79.142,234.249,76.782,234.249,72.662Zm13.329-1.2v-2.6a15.19,15.19,0,0,0-5.135-.84c-3.424,0-5.259,1.679-5.259,4.359v.12a4.194,4.194,0,0,0,4.525,4.24C244.929,76.743,247.578,74.542,247.578,71.463Z" style="fill:#00677f"/><path d="M256.876,73.863V60.425h-2.568V57.866h2.568v-6.08h2.934v6.08h5.544v2.559H259.81V73.382c0,2.24,1.223,3,3.057,3a6.733,6.733,0,0,0,2.487-.559V78.3a7.146,7.146,0,0,1-3.179.72C259.158,79.022,256.876,77.582,256.876,73.863Z" style="fill:#00677f"/><path d="M270.165,50.187h3.261v3.4h-3.261Zm.163,7.679h2.935V78.7h-2.935Z" style="fill:#00677f"/><path d="M278.4,68.463v-.279c0-6.079,4.035-10.719,9.457-10.719s9.415,4.6,9.415,10.679v.239c0,6.079-4.035,10.759-9.456,10.759C282.355,79.142,278.4,74.542,278.4,68.463Zm15.9-.04v-.2c0-4.68-2.894-8.159-6.481-8.159-3.75,0-6.4,3.479-6.4,8.119v.2c0,4.68,2.812,8.159,6.44,8.159C291.566,76.542,294.3,73.023,294.3,68.423Z" style="fill:#00677f"/><path d="M302.167,57.866H305.1v3.4a6.839,6.839,0,0,1,6.278-3.8c4.361,0,6.929,2.92,6.929,7.6V78.7h-2.935V65.864c0-3.719-1.794-5.8-4.891-5.8S305.1,62.5,305.1,66.024V78.7h-2.935Z" style="fill:#00677f"/></svg>