<svg data-name="Isolation Mode" xmlns="http://www.w3.org/2000/svg" viewBox="0 0 55.146 55.151"><path d="M37.711 1.75a15.751 15.751 0 00-10.145 3.718 15.353 15.353 0 011.139 1.063 15.678 15.678 0 013.358 16.54 15.685 15.685 0 0117.618 4.5A15.7 15.7 0 0037.711 1.75M5.472 27.569a15.679 15.679 0 0022.089 22.108 15.686 15.686 0 01-4.5-17.586 15.713 15.713 0 01-16.9-3.736c-.245-.253-.462-.521-.687-.786" fill="none" stroke="#fff" stroke-linecap="round" stroke-linejoin="round" stroke-width="3.5"/><path d="M49.681 27.575h0a15.669 15.669 0 01-17.6 4.512 15.693 15.693 0 01-3.736 16.9c-.253.245-.523.465-.788.69a15.689 15.689 0 0022.12-22.1M17.427 1.755A15.674 15.674 0 005.472 27.569a15.93 15.93 0 011.054-1.128 15.6 15.6 0 0110.886-4.4 15.777 15.777 0 015.654 1.047 15.687 15.687 0 014.5-17.617 15.647 15.647 0 00-10.139-3.716" fill="none" stroke="#fff" stroke-linecap="round" stroke-linejoin="round" stroke-width="3.5"/></svg>