<svg data-name="Layer 1" xmlns="http://www.w3.org/2000/svg" viewBox="0 0 55.32 53"><path d="M43.1 30.5a3 3 0 01-.28-2.55c.54-1.29 2.33-1.86 3.52-2.24l.78-.26c2.07-.82 2.49-1.65 2.48-2.2a1.77 1.77 0 00-1.34-1.44 2.68 2.68 0 00-.95-.18 2 2 0 00-.84.17 7.15 7.15 0 01-2.68.74 2.23 2.23 0 01-1.58-.54c0-.49.06-1 .09-1.52v-.17c.24-3.77.53-8.47-.66-11.15A14.48 14.48 0 0028.2.46h-1.11a14.45 14.45 0 00-13.42 8.66c-1.2 2.68-.9 7.38-.66 11.15 0 .59.07 1.15.1 1.69a2.3 2.3 0 01-1.7.55 7 7 0 01-2.85-.75 1.45 1.45 0 00-.65-.13A2.23 2.23 0 005.74 23c-.09.49.11 1.45 2.47 2.38.22.09.49.17.78.26 1.18.38 3 .95 3.52 2.24a3.05 3.05 0 01-.29 2.56c-.15.35-3.73 8.52-11.72 9.83a.59.59 0 00-.49.61 1.11 1.11 0 00.08.34c.33.77 1.82 1.87 7 2.67.44.07.61.72.84 1.79.09.41.18.84.31 1.28a.74.74 0 00.81.58 7 7 0 001.17-.17 15.32 15.32 0 013.12-.35 13.4 13.4 0 012.25.19 10.8 10.8 0 014.29 2.18c2 1.44 4.14 2.93 7.42 2.93h.7c3.27 0 5.38-1.49 7.42-2.93a10.76 10.76 0 014.28-2.18 13.43 13.43 0 012.3-.13 15 15 0 013.12.33 7.2 7.2 0 001.16.14h.07a.69.69 0 00.74-.55c.13-.44.22-.85.32-1.28.25-1.16.41-1.71.84-1.78 5.2-.8 6.68-1.89 7-2.66a.84.84 0 00.08-.34.58.58 0 00-.48-.61C46.83 39 43.25 30.85 43.1 30.5z" fill="#fff"/></svg>