<svg data-name="Layer 1" xmlns="http://www.w3.org/2000/svg" viewBox="0 0 49.93 42.24"><path d="M.42 38.24a2.09 2.09 0 01.6.4A30.36 30.36 0 0033.72 36c7.6-6.1 11.3-14.1 11.7-23.8a3 3 0 011.2-2.6 13.76 13.76 0 002.9-3c.2-.3.6-.6.3-.9s-.6 0-.8.1c-.9.2-1.7.5-2.6.7-.3.1-.7.2-.8-.1s.3-.5.5-.7a8.89 8.89 0 002.8-4.1c.1-.5 0-.5-.2-.4-1.2.5-2.5 1-3.7 1.5a3.55 3.55 0 01-4-.6 10.34 10.34 0 00-13.9 1.2 10.29 10.29 0 00-2.9 8.5c.1 1-.3 1.3-1.2 1.2-.3 0-.6-.1-.9-.1a30.36 30.36 0 01-18.5-9.6c-1.1-1.2-1.4-1.2-1.9.5A10.51 10.51 0 004 14.64c.3.4 1.1.7.7 1.2s-1 .1-1.5-.1c-.2-.1-.3-.1-.5-.2-1.5-.4-1.8-.2-1.5 1.3a10.64 10.64 0 005.8 7.7c.5.2 1.4.3 1.3.8-.1.7-1 .4-1.6.5h-.2c-1.7 0-1.8.2-1 1.7a10.74 10.74 0 006.9 5.2c.5.1 1.3 0 1.4.6s-.6.7-1 .9a22.57 22.57 0 01-7 2.9 22.81 22.81 0 01-5.2.4c-.2 0-.6 0-.6.2s.22.4.42.5z" fill="#fff"/></svg>